<?xml version="1.0" standalone="no"?><!DOCTYPE svg PUBLIC "-//W3C//DTD SVG 1.1//EN" "http://www.w3.org/Graphics/SVG/1.1/DTD/svg11.dtd"><svg t="1555748645320" class="icon" style="" viewBox="0 0 1024 1024" version="1.1" xmlns="http://www.w3.org/2000/svg" p-id="1723" xmlns:xlink="http://www.w3.org/1999/xlink" width="32" height="32"><defs><style type="text/css"></style></defs><path d="M457.8 112.4c4.6 0 9.2 0.1 13.2 0.3 13.5 0.6 31.4 2.8 44.7 4.9 10.9 1.8 25.3 5.4 36 8.2 0.9 0.3 1.8 0.6 2.8 0.9 13.8 4.3 31.3 9.9 44.1 15.1 8.4 3.5 19.5 8.4 27.7 12.3 6.8 3.3 15.7 8 22.4 11.6 7.4 4 17 9.7 24.1 14.2 6.5 4 15 9.7 21.3 14 14 9.6 31 22.7 41.8 32 5.8 5 13.7 11.6 19.3 17 5.6 5.4 13.1 12.4 18.5 17.8 5.4 5.5 12.4 13 17.7 18.6 5.3 5.6 11.9 13.5 16.8 19.4 4.9 5.9 11.1 14 15.8 20 4.8 6.1 10.7 14.6 15.1 21 4.3 6.3 9.8 14.7 13.7 21.2 4.1 6.8 9.4 15.9 13.2 22.9 3.6 6.6 8.2 15.4 11.3 22.2 3.1 6.8 7.3 15.8 10.1 22.7 3.1 7.5 6.9 17.7 9.5 25.4 7.2 21.7 10.5 36.4 13.4 51 2.6 13.1 4.8 30.9 5.4 44.3 0.3 6.5 0.6 15.2 0.4 21.7-0.2 7.5-0.7 17.6-1.5 25.1-1.1 10.5-3.1 24.5-5.8 34.7-1.5 5.5-3.2 12.9-5 18.4-2.9 8.5-6.8 19.9-10.6 28-2.4 5-5.5 11.8-8.2 16.6-4.1 7.2-9.8 16.7-14.5 23.5-3.2 4.5-7.5 10.5-11.1 14.7-5.2 6.2-12.5 14.2-18.2 19.9l-8.3 8.2c-1.1 4.1-2.3 8.1-3.5 11.6-0.6 1.6-1.2 3.3-1.9 5.1 0 0.1-0.1 0.2-0.1 0.3-0.1 0.2-0.2 0.5-0.3 0.7-1.5 3.8-3.2 7.7-4.9 11.3-0.8 1.7-1.5 3.3-2.3 4.7-2.9 5.8-7.5 13.1-11 18.6-4.4 6.7-11.3 14.9-16.7 20.9-4.1 4.5-10.2 9.9-14.8 13.9-3 2.7-7.3 6-10.7 8.2-5.3 3.6-12.4 8.2-18 11.2-7.7 4.1-18.4 8.6-26.5 11.8-4.1 1.7-9.9 3.2-14.2 4.5-5.2 1.6-12.3 3.1-17.7 4.1-3.8 0.7-8.7 1.5-13 2-5.4 2.3-11.1 4.6-15.8 6.4-5.4 2-12.9 4.3-18.5 5.8-18.3 4.9-32.9 7.4-51.6 9-7.5 0.7-16.6 1-25.3 1h-4.6c-3.3 0-6.5-0.1-9.5-0.3-2.1-0.1-4.6-0.3-6.9-0.4-5.1-0.3-10.3-0.8-15.7-1.3-7.9-0.8-15.8-1.9-22.4-3.3-10.5-2.2-24.4-5.2-34.7-7.9-7.2-1.9-16.6-5-23.7-7.3-7.1-2.3-16.3-5.8-23.2-8.7-8.4-3.5-19.4-8.5-27.7-12.3-6.9-3.2-15.8-7.9-22.4-11.6-7.3-4.1-17-9.7-24.1-14.2-6.5-4-15-9.7-21.3-14-6.6-4.6-15.3-10.8-21.6-15.7-6-4.8-14.1-11.1-20-16.1-6-5-13.9-11.8-19.5-17.2-5.6-5.4-13.1-12.4-18.5-17.8-5.4-5.5-12.4-13-17.7-18.6-5.3-5.6-11.8-13.5-16.8-19.4-5-5.9-11.3-13.9-15.9-20.1-4.7-6.2-10.7-14.6-15.1-21-4.3-6.3-9.8-14.7-13.7-21.2-4.1-6.8-9.5-15.9-13.2-22.9-3.5-6.6-8.1-15.4-11.3-22.2-3.5-7.5-8-17.6-11.1-25.3-2.7-6.8-6.1-15.9-8.4-22.8-2.8-8.5-6.3-20-8.5-28.7-3.2-13.3-6.6-31.3-8.5-44.9-1.3-9.4-2.2-22-2.3-31.5-0.1-6 0-13.1 0.4-20.1 0.2-4 0.4-8 0.7-11.8 0.2-3.1 0.5-6.2 0.8-8.9 1.2-10.9 4.1-25.2 6.6-35.9 1.6-6.8 4.2-15.1 6.8-22.4 0.1-0.1 0.1-0.3 0.2-0.4 0.8-2.3 1.7-4.6 2.5-6.6 1.5-3.7 3.3-7.9 5.2-12.1 0.7-5 1.5-9.9 2.3-14.2 0.4-2.2 1-4.7 1.6-7.2 1.9-7.5 4.5-15.7 6.7-22.2 2.4-6.8 6.4-15.5 9.7-21.8 3-5.7 7.3-13.2 11.1-18.3 2.4-3.2 5.5-7.6 8.1-10.7 3.5-4.2 8.3-9.7 12.3-13.5 5.9-5.5 14.1-12.5 20.6-17.3 5.1-3.8 12.3-8.3 18-11.2 7.8-3.9 18.3-8.9 26.5-11.8 4-1.4 9.2-3 13.6-4.3l8.7-8.5c8.2-7.5 19.5-17.2 28.4-23.9 6.5-4.9 15.6-10.8 22.8-14.6 7.4-3.9 17.3-8.9 24.9-12.4 5.2-2.4 12.5-4.9 17.8-6.9 8.5-3.3 20.3-6.4 29.2-8.3 11.8-2.5 27.8-4.9 39.8-6 7.5-0.6 16.3-0.9 24.7-0.9m0-39.4c-10.1 0-19.9 0.4-27.8 1-13.4 1.1-30.9 3.8-44.6 6.7-4.7 1-21.2 4.7-35.2 10-1.4 0.6-3 1.1-4.7 1.7-4.8 1.8-10.3 3.8-15.3 6-7.9 3.6-18.6 8.9-27.4 13.6-8.8 4.7-19.7 11.7-27.9 17.9-12.2 9.2-25.9 21.4-31.2 26.3l-0.6 0.5-0.5 0.5-1.8 1.8c-2 0.7-4 1.3-5.8 2-8.2 2.9-18.7 7.5-31.2 13.8-8.7 4.4-17.9 10.4-23.6 14.7-7.7 5.6-17.2 13.6-24.3 20.3-4.3 4-9.2 9.4-15.4 16.8-2.9 3.4-5.5 7.1-7.9 10.3l-1.7 2.3c-5.6 7.5-10.9 16.9-14.3 23.4-3.6 6.7-8.6 17.4-12 27.2-2.9 8.4-5.8 17.7-7.8 25.7-0.8 3.2-1.5 6.3-2.1 9.2-0.6 3.2-1.2 6.8-1.8 10.7-1.3 2.9-2.5 5.8-3.6 8.4-1 2.4-2 5-2.9 7.8l-0.1 0.1-0.2 0.6c-3.2 9-6.1 18.7-8 26.6-1.3 5.5-5.7 24.5-7.5 40.7-0.4 3.2-0.7 6.7-0.9 10.3-0.3 4.2-0.6 8.6-0.8 13.1-0.4 8-0.5 15.7-0.4 22.4 0.2 11.8 1.2 26.1 2.7 36.4 2.2 15.5 5.8 34.6 9.2 48.7 2.5 10.2 6.4 22.9 9.3 31.7 3.1 9.4 7.5 20.7 9.2 25.1 3.6 9 8.6 20.2 12.1 27.6 3.4 7.3 8 16.1 12.1 23.8 4.9 9.3 11.7 20.6 14.4 25.1 4 6.5 9.8 15.5 14.8 22.8 4.5 6.7 10.9 15.5 16.2 22.6 3 3.9 10.6 13.9 17.3 21.8l2.9 3.5c4.8 5.7 10.3 12.2 15.3 17.5 1.7 1.7 3.5 3.7 5.4 5.7 4.3 4.6 9 9.6 12.9 13.5 3.9 4 8.9 8.7 13.5 13.1l5.6 5.3c6.4 6.2 14.9 13.4 21.5 19 5.1 4.3 11.4 9.3 16.9 13.7l3.9 3.1c5.7 4.5 13.6 10.3 23.6 17.3 7.1 4.9 16.1 10.9 23 15.1 7.8 4.8 17.9 10.8 25.8 15.2 3.3 1.8 14.9 8.2 24.8 12.8 5.2 2.4 18.4 8.5 29.3 13.1 8.1 3.4 18.3 7.1 25.8 9.7 8.4 2.8 18 5.9 26.2 8.1 8.9 2.3 20.8 5.1 36.6 8.4 7.4 1.6 16.3 2.9 26.4 4 5.1 0.5 10.6 1 17.2 1.5l1.5 0.1c2.1 0.1 4.1 0.3 6 0.4 3.4 0.2 7.1 0.3 11 0.4h5.1c10.1 0 20.3-0.4 28.8-1.2 21.4-1.9 38.3-4.8 58.3-10.2 2.9-0.8 13.1-3.6 22.2-7 3.6-1.3 7.7-3 12.6-5 3.5-0.5 7-1.1 9.8-1.7 9.3-1.8 16.2-3.4 21.7-5.1l3.2-0.9c4.2-1.2 9.3-2.7 14.2-4.6 13-5.2 22.9-9.6 30.4-13.6 5.8-3.1 12.9-7.5 21.6-13.4 2-1.3 9-6.2 15-11.6l2.2-2c4.7-4.2 10.6-9.4 15.4-14.8 6.1-6.7 14.6-16.7 20.6-25.9 3.8-5.9 9.2-14.6 13.1-22.3 0.9-1.8 1.9-3.8 2.8-5.8 2-4.2 4-8.8 5.8-13.3l0.3-0.7 0.2-0.5 0.1-0.3c0.8-2 1.6-4.1 2.2-5.9 0.4-1.2 0.9-2.5 1.3-3.9l1-1 0.2-0.2 0.3-0.3c6.4-6.5 14.3-15.2 20.2-22.2 5.5-6.6 11.2-14.6 13.4-17.7 6.7-9.7 13.7-21.8 16.4-26.6 3.1-5.5 6.2-12 8.6-17.2l0.9-2c4.5-9.5 8.5-21.1 12.3-32.2 1.8-5.4 3.4-11.4 4.7-16.6l1.1-4.2c4-15.1 6.2-33.5 6.9-40.7 1-9.5 1.5-20.8 1.7-28.3 0.2-9.1-0.2-20.2-0.5-24.5-0.7-15.1-3.1-34.7-6.1-50-3.3-17.1-7.1-33.1-14.7-55.9-3.1-9.3-7.4-20.5-10.3-27.8-3.2-7.9-7.7-17.7-10.8-24.5-4.6-9.9-10.7-21.2-12.4-24.5-4-7.4-9.6-17.1-14.2-24.6-4.2-6.8-10-15.8-14.8-22.9-6.8-10-12.3-17.6-16.6-23.1l-3.6-4.7c-4.2-5.4-8.9-11.5-12.8-16.2-5.4-6.6-12.5-14.9-18.6-21.4l-5.3-5.6c-4.4-4.7-9.1-9.7-13-13.6-3.9-4-8.9-8.7-13.5-13.1-2-1.9-3.9-3.7-5.6-5.4-5.4-5.2-11.9-10.8-17.6-15.7l-3.3-2.8c-12-10.3-30.2-24.2-45.1-34.6-7.5-5.2-16.5-11.1-22.9-15.1-3.4-2.1-15.4-9.5-26.1-15.3-5.4-2.9-15.7-8.5-24.2-12.5-9.2-4.4-20.9-9.6-29.7-13.2-14-5.8-31.9-11.5-47.4-16.3l-0.5-0.2-2.3-0.7-0.9-0.3-0.9-0.2C549 84.6 534.3 81 522.2 79c-6.5-1.1-29.4-4.6-49.4-5.4-4.7-0.5-9.8-0.6-15-0.6z" fill="#6B0A0C" p-id="1724"></path><path d="M118.6 541.1c-3.2-13.3-6.6-31.3-8.5-44.9-1.3-9.4-2.2-22-2.3-31.5-0.2-12.3 0.5-28.7 1.9-40.9 1.2-10.9 4.1-25.2 6.6-35.9 2.2-9 6-20.9 9.4-29.5 4.2-10.3 10.5-23.9 16-33.6 4.1-7.3 10.1-16.7 15.2-23.4 3.4-4.4 7.9-10.3 11.5-14.5 4.1-4.7 9.8-10.8 14.3-15.3-41.9 41.2-56.9 109.1-35.2 194.7C191.7 640.2 371.1 821 548.2 870c90 24.9 162.1 11 205.4-31.6-8.2 7.5-19.3 17.5-28.4 24-6.1 4.3-14.4 9.7-20.8 13.5-4.8 2.9-11.4 6.5-16.6 8.8-7.8 3.5-18.3 8-26.3 11-5.4 2-12.9 4.3-18.5 5.8-18.3 4.9-32.9 7.4-51.6 9-11.8 1-27.6 1.3-39.4 0.7-13.6-0.7-31.7-2.3-45-5.1-10.5-2.2-24.4-5.2-34.7-7.9-7.2-1.9-16.6-5-23.7-7.3-7.1-2.3-16.3-5.8-23.2-8.7-8.4-3.5-19.4-8.5-27.7-12.3-6.9-3.2-15.8-7.9-22.4-11.6-7.3-4.1-17-9.7-24.1-14.2-6.5-4-15-9.7-21.3-14-6.6-4.6-15.3-10.7-21.6-15.7-6-4.8-14.1-11.1-20-16.1-6-5-13.9-11.8-19.5-17.2-5.6-5.4-13.1-12.4-18.5-17.8-5.4-5.5-12.4-13-17.7-18.6-5.3-5.6-11.8-13.5-16.8-19.4-5-5.9-11.3-13.9-15.9-20.1-4.7-6.2-10.7-14.6-15.1-21-4.3-6.3-9.8-14.7-13.7-21.2-4.1-6.8-9.5-15.9-13.2-22.9-3.5-6.6-8.1-15.4-11.3-22.2-3.5-7.5-8-17.6-11.1-25.3-2.7-6.8-6.1-15.9-8.4-22.8-2.8-8.5-6.4-20-8.5-28.7z" fill="#E2375C" p-id="1725"></path><path d="M420.4 208.6c177.1 49 356.5 229.7 400.7 403.7 44.2 173.9-63.6 275.2-240.6 226.2-177.1-49-356.5-229.7-400.7-403.7-44.2-173.9 63.5-275.2 240.6-226.2z" fill="#F7AFD4" p-id="1726"></path><path d="M417.2 198.8c-9.5-2.5-22.2-5.7-31.9-7.4-10.3-1.9-24.1-4.1-34.6-4.8-11.9-0.8-27.7-1.2-39.6-0.7-9.4 0.4-21.9 2.1-31.2 3.7-4.9 0.8-11.3 2.4-16 3.6-4.8 1.3-11.1 3.3-15.8 4.9-8.2 2.9-18.7 7.9-26.5 11.8-5.7 2.9-12.9 7.4-18 11.2-6.5 4.8-14.8 11.7-20.6 17.3-4 3.8-8.8 9.3-12.3 13.5-2.6 3.1-5.7 7.5-8.1 10.7-3.8 5.2-8.1 12.7-11.1 18.3-3.4 6.3-7.3 15.1-9.7 21.8-3.1 8.6-6.6 20.4-8.4 29.4-1.9 9.8-3.6 23.1-4.3 33-0.6 8.8-0.5 20.7-0.1 29.5 0.6 13.1 3.3 30.5 5.3 43.5 1.1 6.9 3.4 16 5.1 22.8 2.2 9.2 5.7 21.3 8.9 30.2 3 8.3 6.9 19.4 10.3 27.6 3.2 7.8 7.6 18.2 11.4 25.8 4 8 9.3 18.8 13.6 26.6 4.3 7.8 10.2 18.1 14.9 25.7 4.8 7.8 11.4 18.1 16.6 25.6 5.2 7.6 12.4 17.6 18 25 5.6 7.5 13.3 17.2 19.3 24.3 6 7.3 14.3 16.8 20.6 23.7 6.3 7 15 16.1 21.7 22.8 6.7 6.7 15.9 15.3 22.7 21.9 6.8 6.5 16.4 14.7 23.6 20.8 7.2 6.1 17.2 13.9 24.6 19.8 7.5 6 18 13.6 26 19 15.1 10.1 35.5 23.3 51.4 32.1 8.3 4.6 19.6 10.5 28.2 14.7 7.8 3.8 18.3 8.4 26.2 11.9 8.9 3.9 21 8.3 30.2 11.5 7.6 2.7 18 5.6 25.7 8 9.4 2.9 22.2 5.6 31.9 7.4 6.8 1.3 16 2.8 22.9 3.6 9.5 1 22.3 1.8 31.8 2.2 10.2 0.5 23.9-0.4 34-1.6 5-0.6 11.7-1.5 16.7-2.5 5.3-1 12.5-2.5 17.7-4.1 4.3-1.3 10.1-2.8 14.2-4.5 8.1-3.2 18.8-7.7 26.5-11.8 5.6-3 12.7-7.6 18-11.2 3.4-2.3 7.7-5.5 10.7-8.2 4.5-4.1 10.7-9.4 14.8-13.9 5.4-6 12.4-14.2 16.7-20.9 3.5-5.4 8.1-12.8 11-18.6 3.3-6.5 7.1-15.4 9.6-22.2 3.1-8.7 6-20.7 8.1-29.7 1.1-4.8 1.8-11.2 2.5-16 0.8-5.3 1.3-12.4 1.5-17.8 0.3-7.8 0.3-18.3-0.1-26.1-0.6-13.2-2.6-30.7-5.3-43.6-1.7-8.4-4.2-19.6-6.4-28-2-7.6-5.1-17.6-7.6-25.1-2.8-8.4-6.9-19.4-10.3-27.6-3.2-7.8-7.6-18.2-11.4-25.8-4-8-9.3-18.8-13.6-26.6-4.3-7.8-10.2-18.1-14.9-25.7-4.8-7.8-11.4-18.1-16.6-25.6-5.2-7.6-12.2-17.7-18-25-5.8-7.3-13.3-17.2-19.3-24.4-6-7.2-14.1-16.9-20.6-23.7-6.5-6.9-15-16.1-21.7-22.8-6.7-6.7-15.9-15.3-22.7-21.9-6.8-6.6-16.5-14.6-23.6-20.8-7.1-6.2-17.1-14-24.6-19.8-7.7-5.9-18.1-13.5-26-19-17.4-12-35.1-23.1-53.7-33.4-15.2-8.4-36-18.6-52.1-25.3-8.9-3.7-21-8.3-30.2-11.5-7.9-2.3-18.3-5.2-26-7.6 5 1.4 5 1.4 0 0z" fill="#FFEB9A" p-id="1727"></path><path d="M424.2 189.1C607.4 239.8 793 426.8 838.7 606.7c45.7 180-65.7 284.8-249 234.1-190.4-52.7-361.6-209.3-414.5-417.6-45.7-180 65.7-284.8 249-234.1z" fill="#6B0A0C" p-id="1728"></path><path d="M859.4 732.2c3.6-4.2 8-10.2 11.1-14.7 4.7-6.8 10.4-16.3 14.5-23.5 2.7-4.8 5.8-11.6 8.2-16.6 3.8-8.1 7.7-19.5 10.6-28 1.8-5.4 3.6-12.8 5-18.4 2.7-10.2 4.7-24.2 5.8-34.7 0.8-7.5 1.3-17.6 1.5-25.1 0.1-6.5-0.1-15.2-0.4-21.7-0.6-13.4-2.9-31.1-5.4-44.3-2.9-14.6-6.2-29.3-13.4-51-2.6-7.7-6.4-17.9-9.5-25.4-2.8-6.9-6.9-16-10.1-22.7-3.1-6.8-7.7-15.6-11.3-22.2-3.8-7-9.1-16.1-13.2-22.9-4-6.5-9.5-15-13.7-21.2-4.4-6.4-10.3-14.9-15.1-21-4.7-6-11-14.1-15.8-20-4.9-5.9-11.5-13.8-16.8-19.4-5.3-5.6-12.2-13.1-17.7-18.6-5.4-5.5-13-12.5-18.5-17.8-5.5-5.3-13.4-12-19.3-17-10.8-9.3-27.8-22.4-41.8-32-6.3-4.3-14.8-10-21.3-14-7.1-4.4-16.7-10.2-24.1-14.2-6.6-3.6-15.6-8.3-22.4-11.6-8.2-3.9-19.3-8.9-27.7-12.3-12.9-5.3-30.3-10.9-44.1-15.1 0.6 0.2 1.1 0.4 1.7 0.6-0.6-0.2-1.1-0.4-1.7-0.6-1-0.3-1.9-0.6-2.8-0.9-10.7-2.8-25.1-6.4-36-8.2-13.3-2.2-31.2-4.4-44.7-4.9-11.3-0.5-26.4-0.3-37.7 0.6-12 1-28 3.5-39.8 6-8.9 1.9-20.7 5-29.2 8.3-5.4 2.1-12.6 4.5-17.8 6.9-7.6 3.4-17.6 8.4-24.9 12.4-7.2 3.8-16.3 9.7-22.8 14.6-8.9 6.7-20.2 16.4-28.4 23.9-41.9 41.2-56.9 109.1-35.2 194.7C279.3 554 458.7 734.8 635.8 783.7c90 24.9 162.1 11 205.4-31.6 5.7-5.7 13-13.7 18.2-19.9z" fill="#FF5A78" p-id="1729"></path><path d="M833.1 653.3c2.9-3.4 6.3-8.1 8.9-11.8 3.8-5.4 8.3-13 11.6-18.8 2.2-3.9 4.7-9.2 6.5-13.3 3.1-6.5 6.2-15.5 8.5-22.3 1.5-4.3 2.8-10.2 4-14.6 2.2-8.1 3.8-19.3 4.6-27.7 0.6-6 1-14 1.2-20 0.1-5.2-0.1-12.1-0.3-17.3-0.5-10.7-2.3-24.8-4.3-35.3-2.3-11.7-4.9-23.4-10.7-40.7-2-6.1-5.1-14.2-7.5-20.3-2.2-5.5-5.5-12.7-8-18.1-2.5-5.4-6.2-12.5-9-17.7-3-5.6-7.2-12.9-10.5-18.3-3.2-5.2-7.5-11.9-11-16.9-3.5-5.1-8.2-11.9-12-16.8-3.8-4.8-8.7-11.3-12.6-16-3.9-4.7-9.2-11-13.4-15.5-4.2-4.5-9.8-10.5-14.1-14.8-4.3-4.4-10.3-10-14.8-14.2-4.4-4.3-10.7-9.5-15.4-13.5-8.6-7.4-22.2-17.8-33.3-25.5-5-3.5-11.8-8-17-11.2-5.7-3.5-13.4-8.1-19.2-11.3-5.3-2.9-12.4-6.6-17.8-9.2-6.5-3.1-15.4-7.1-22.1-9.8-10.3-4.2-24.1-8.7-35.2-12.1 0.5 0.2 0.9 0.3 1.3 0.5-0.4-0.2-0.9-0.3-1.3-0.5-0.8-0.2-1.5-0.5-2.2-0.7-8.6-2.2-20-5.1-28.7-6.5-10.6-1.7-24.9-3.5-35.6-3.9-9-0.4-21.1-0.2-30 0.5-9.6 0.8-22.3 2.8-31.7 4.7-7.1 1.5-16.5 4-23.3 6.6-4.3 1.6-10 3.6-14.2 5.5-6.1 2.7-14 6.7-19.9 9.9-5.7 3.1-13 7.8-18.2 11.7-7.1 5.3-16.1 13.1-22.6 19.1-33.4 32.8-45.4 87-28.1 155.2 35.2 138.7 178.2 282.8 319.4 321.8 71.8 19.9 129.2 8.8 163.8-25.2 4.3-4.4 10.1-10.8 14.2-15.7z" fill="#FFADBC" p-id="1730"></path><path d="M238.1 217l32.2-31.6c-41.9 41.2-56.9 109.1-35.2 194.7C279.3 554 458.7 734.8 635.8 783.8c90 24.9 162.1 11 205.4-31.6L809 783.8c-43.3 42.5-115.4 56.5-205.4 31.6-177.1-49-356.5-229.7-400.7-403.7-21.8-85.5-6.7-153.5 35.2-194.7z" fill="#E2375C" p-id="1731"></path><path d="M459.8 304.7m-20.5 0a20.5 20.5 0 1 0 41 0 20.5 20.5 0 1 0-41 0Z" fill="#E2375C" p-id="1732"></path><path d="M622.7 409m-20.5 0a20.5 20.5 0 1 0 41 0 20.5 20.5 0 1 0-41 0Z" fill="#E2375C" p-id="1733"></path><path d="M775.3 482.1m-20.5 0a20.5 20.5 0 1 0 41 0 20.5 20.5 0 1 0-41 0Z" fill="#E2375C" p-id="1734"></path><path d="M666.9 580.7m-20.5 0a20.5 20.5 0 1 0 41 0 20.5 20.5 0 1 0-41 0Z" fill="#E2375C" p-id="1735"></path><path d="M509.1 501.8m-20.5 0a20.5 20.5 0 1 0 41 0 20.5 20.5 0 1 0-41 0Z" fill="#E2375C" p-id="1736"></path><path d="M715.3 321.6m-20.5 0a20.5 20.5 0 1 0 41 0 20.5 20.5 0 1 0-41 0Z" fill="#E2375C" p-id="1737"></path><path d="M565 255.4m-20.5 0a20.5 20.5 0 1 0 41 0 20.5 20.5 0 1 0-41 0Z" fill="#E2375C" p-id="1738"></path></svg>